<?xml version="1.0" encoding="iso-8859-1"?>
<!-- Generator: Adobe Illustrator 19.0.0, SVG Export Plug-In . SVG Version: 6.00 Build 0)  -->
<svg version="1.1" id="Capa_1" xmlns="http://www.w3.org/2000/svg" xmlns:xlink="http://www.w3.org/1999/xlink" x="0px" y="0px"
	 viewBox="0 0 480 480" style="enable-background:new 0 0 480 480;" xml:space="preserve">
<g>
	<g>
		<path d="M456,88H155.312l-29.648-29.648c-1.506-1.496-3.541-2.341-5.664-2.352H24C10.745,56,0,66.745,0,80v320
			c0,13.255,10.745,24,24,24h432c13.255,0,24-10.745,24-24V112C480,98.745,469.255,88,456,88z M464,400c0,4.418-3.582,8-8,8H24
			c-4.418,0-8-3.582-8-8v-8h448V400z M464,376H16V80c0-4.418,3.582-8,8-8h92.688l29.648,29.648c1.507,1.496,3.541,2.341,5.664,2.352
			h304c4.418,0,8,3.582,8,8V376z"/>
	</g>
</g>
<g>
</g>
<g>
</g>
<g>
</g>
<g>
</g>
<g>
</g>
<g>
</g>
<g>
</g>
<g>
</g>
<g>
</g>
<g>
</g>
<g>
</g>
<g>
</g>
<g>
</g>
<g>
</g>
<g>
</g>
</svg>
