<?xml version="1.0" encoding="iso-8859-1"?>
<!-- Generator: Adobe Illustrator 19.0.0, SVG Export Plug-In . SVG Version: 6.00 Build 0)  -->
<svg version="1.1" id="Capa_1" xmlns="http://www.w3.org/2000/svg" xmlns:xlink="http://www.w3.org/1999/xlink" x="0px" y="0px"
	 viewBox="0 0 480 480" style="enable-background:new 0 0 480 480;" xml:space="preserve">
<g>
	<g>
		<g>
			<path d="M424,88c-0.011-2.123-0.856-4.157-2.352-5.664l-80-80C340.143,0.849,338.116,0.011,336,0H64c-4.418,0-8,3.582-8,8v96
				c0,4.418,3.582,8,8,8h24v64H64c-4.418,0-8,3.582-8,8v248c0.037,1.42,0.46,2.803,1.224,4c-0.764,1.197-1.187,2.58-1.224,4v32
				c0,4.418,3.582,8,8,8h352c4.418,0,8-3.582,8-8v-32c-0.037-1.42-0.46-2.803-1.224-4c0.764-1.197,1.187-2.58,1.224-4V88z M272,16
				h16v48h-16V16z M192,16h16v48h-16V16z M112,16h16v48h-16V16z M408,464H72v-16h336V464z M408,424H72V192h24c4.418,0,8-3.582,8-8
				v-80c0-4.418-3.582-8-8-8H72V16h24v56c0,4.418,3.582,8,8,8h32c4.418,0,8-3.582,8-8V16h32v56c0,4.418,3.582,8,8,8h32
				c4.418,0,8-3.582,8-8V16h32v56c0,4.418,3.582,8,8,8h32c4.418,0,8-3.582,8-8V16h28.688L408,91.312V424z"/>
			<path d="M120,208v64c0,4.418,3.582,8,8,8h224c4.418,0,8-3.582,8-8v-64c0-4.418-3.582-8-8-8H128C123.582,200,120,203.582,120,208z
				 M136,216h208v48H136V216z"/>
		</g>
	</g>
</g>
<g>
</g>
<g>
</g>
<g>
</g>
<g>
</g>
<g>
</g>
<g>
</g>
<g>
</g>
<g>
</g>
<g>
</g>
<g>
</g>
<g>
</g>
<g>
</g>
<g>
</g>
<g>
</g>
<g>
</g>
</svg>
